<svg width="113" height="25" viewBox="0 0 113 25" fill="none" xmlns="http://www.w3.org/2000/svg">
<g opacity="0.45">
<path d="M5.82239 19.0083V8.41944H8.30174V6.37914H5.82239V2.42769H3.3947V6.37914H0.915359V8.41944H3.3947V19.0083H5.82239Z" fill="#242424"/>
<path d="M15.8037 19.3182C18.9287 19.3182 21.0465 17.7945 21.6663 15.0827H19.3936C18.9804 16.529 17.7407 17.3038 15.8554 17.3038C13.4535 17.3038 12.0589 15.8316 11.8781 13.1715L21.6405 13.1457V12.2418C21.6405 8.49692 19.2903 6.01757 15.7004 6.01757C12.0331 6.01757 9.52789 8.75518 9.52789 12.7066C9.52789 16.6323 12.0847 19.3182 15.8037 19.3182ZM15.7004 8.05787C17.844 8.05787 19.2128 9.4525 19.2128 11.5444H11.9298C12.2397 9.32336 13.5826 8.05787 15.7004 8.05787Z" fill="#242424"/>
<path d="M26.7798 19.0083V11.5186C26.7798 9.50415 27.9936 8.23865 29.8273 8.23865C31.5319 8.23865 32.6166 9.32337 32.6166 11.312V19.0083H35.0184V11.5186C35.0184 9.50415 36.2323 8.21283 38.066 8.21283C39.7705 8.21283 40.881 9.34919 40.881 11.3378V19.0083H43.2571V10.7438C43.2571 7.82543 41.5009 6.01757 38.6083 6.01757C36.6455 6.01757 35.1217 6.99898 34.5277 8.5744C33.8821 6.99898 32.4874 6.01757 30.5246 6.01757C28.7426 6.01757 27.3996 6.84402 26.754 8.03204L26.5215 6.37914H24.3521V19.0083H26.7798Z" fill="#242424"/>
<path d="M46.6224 24.6643H49.0501V16.9422C49.8765 18.4918 51.5553 19.344 53.5697 19.344C57.3146 19.344 59.4323 16.4515 59.4323 12.6033C59.4323 8.72936 57.1854 6.01757 53.5697 6.01757C51.5553 6.01757 49.8507 6.9215 48.9984 8.65188L48.8177 6.37914H46.6224V24.6643ZM49.0759 12.7066C49.0759 10.0723 50.5738 8.23865 53.0532 8.23865C55.5325 8.23865 57.0046 10.0982 57.0046 12.7066C57.0046 15.2893 55.5325 17.1488 53.0532 17.1488C50.5738 17.1488 49.0759 15.2893 49.0759 12.7066Z" fill="#242424"/>
<path d="M64.5875 19.0083V0H62.1599V19.0083H64.5875Z" fill="#242424"/>
<path d="M71.8545 19.3182C73.8948 19.3182 75.6251 18.4143 76.2708 16.968L76.5291 19.0083H78.5952V11.0796C78.5952 7.67047 76.4774 6.01757 73.3524 6.01757C70.0983 6.01757 67.9288 7.74795 67.9288 10.3823H70.0466C70.0466 8.85849 71.2088 7.95456 73.2491 7.95456C74.9537 7.95456 76.2192 8.70353 76.2192 10.8213V11.1829L72.2419 11.4928C69.2718 11.7252 67.5415 13.1715 67.5415 15.4959C67.5415 17.7945 69.1427 19.3182 71.8545 19.3182ZM72.5518 17.4329C70.9764 17.4329 69.995 16.7614 69.995 15.4184C69.995 14.1787 70.8731 13.3523 73.0167 13.1457L76.245 12.8874V13.5589C76.245 15.9349 74.8503 17.4329 72.5518 17.4329Z" fill="#242424"/>
<path d="M85.3196 19.0083V8.41944H87.7989V6.37914H85.3196V2.42769H82.8919V6.37914H80.4125V8.41944H82.8919V19.0083H85.3196Z" fill="#242424"/>
<path d="M95.3009 19.3182C98.4259 19.3182 100.544 17.7945 101.164 15.0827H98.8908C98.4776 16.529 97.2379 17.3038 95.3525 17.3038C92.9507 17.3038 91.5561 15.8316 91.3753 13.1715L101.138 13.1457V12.2418C101.138 8.49692 98.7875 6.01757 95.1976 6.01757C91.5302 6.01757 89.0251 8.75518 89.0251 12.7066C89.0251 16.6323 91.5819 19.3182 95.3009 19.3182ZM95.1976 8.05787C97.3412 8.05787 98.71 9.4525 98.71 11.5444H91.4269C91.7368 9.32336 93.0798 8.05787 95.1976 8.05787Z" fill="#242424"/>
<path d="M102.816 15.3409C102.816 17.7428 104.702 19.3182 107.672 19.3182C110.667 19.3182 112.734 17.7945 112.734 15.3926C112.734 13.5073 111.675 12.5259 109.531 12.0093L107.31 11.467C106.07 11.157 105.451 10.5889 105.451 9.73659C105.451 8.5744 106.303 7.90291 107.827 7.90291C109.299 7.90291 110.151 8.70353 110.203 9.96903H112.527C112.475 7.56716 110.667 6.01757 107.904 6.01757C105.115 6.01757 103.152 7.48968 103.152 9.81407C103.152 11.6736 104.211 12.7841 106.458 13.3265L108.679 13.843C109.996 14.1787 110.409 14.6953 110.409 15.5475C110.409 16.7097 109.428 17.4071 107.723 17.4071C106.122 17.4071 105.141 16.6323 105.141 15.3409H102.816Z" fill="#242424"/>
</g>
</svg>
