<svg width="48" height="25" viewBox="0 0 48 25" fill="none" xmlns="http://www.w3.org/2000/svg">
<path d="M0 12.3709C0 15.9091 2.27273 18.6726 5.86261 18.6726C7.85125 18.6726 9.50415 17.7945 10.3306 16.3223V18.8533C10.3306 21.2552 8.78101 22.8048 6.40497 22.8048C4.2872 22.8048 2.89257 21.7201 2.58265 19.8606H0.154959C0.619836 23.0631 2.97005 25 6.40497 25C10.2789 25 12.7325 22.4691 12.7325 18.4918V6.37914H10.563L10.3823 8.52274C9.58163 6.94733 8.00621 6.01757 5.96592 6.01757C2.29856 6.01757 0 8.80683 0 12.3709ZM2.42769 12.3192C2.42769 9.99485 3.87397 8.13535 6.30166 8.13535C8.78101 8.13535 10.2273 9.89155 10.2273 12.3192C10.2273 14.7986 8.72936 16.5548 6.27584 16.5548C3.8998 16.5548 2.42769 14.6953 2.42769 12.3192Z" fill="#242424"/>
<path d="M15.4095 12.6808C15.4095 16.5806 18.1988 19.3182 21.9953 19.3182C25.766 19.3182 28.5552 16.5806 28.5552 12.6808C28.5552 8.78101 25.766 6.0434 21.9953 6.0434C18.1988 6.0434 15.4095 8.78101 15.4095 12.6808ZM17.8631 12.6808C17.8631 10.0465 19.5418 8.21283 21.9953 8.21283C24.423 8.21283 26.1275 10.0465 26.1275 12.6808C26.1275 15.3151 24.423 17.1488 21.9953 17.1488C19.5418 17.1488 17.8631 15.3151 17.8631 12.6808Z" fill="#242424"/>
<path d="M33.7219 19.0083V0H31.2942V19.0083H33.7219Z" fill="#242424"/>
<path d="M40.9889 19.3182C43.0292 19.3182 44.7595 18.4143 45.4052 16.968L45.6635 19.0083H47.7296V11.0796C47.7296 7.67047 45.6118 6.01757 42.4868 6.01757C39.2327 6.01757 37.0632 7.74795 37.0632 10.3823H39.181C39.181 8.85849 40.3432 7.95456 42.3835 7.95456C44.088 7.95456 45.3535 8.70353 45.3535 10.8213V11.1829L41.3763 11.4928C38.4062 11.7252 36.6758 13.1715 36.6758 15.4959C36.6758 17.7945 38.2771 19.3182 40.9889 19.3182ZM41.6862 17.4329C40.1108 17.4329 39.1294 16.7614 39.1294 15.4184C39.1294 14.1787 40.0075 13.3523 42.1511 13.1457L45.3794 12.8874V13.5589C45.3794 15.9349 43.9847 17.4329 41.6862 17.4329Z" fill="#242424"/>
</svg>
